<svg width="36" height="20" viewBox="0 0 36 20" fill="none" xmlns="http://www.w3.org/2000/svg">
    <path
        d="M29.388 10.968H30.252C30.216 11.28 30.168 11.58 30.108 11.844H34.668C34.668 13.644 34.512 14.808 34.224 15.312C33.936 15.792 33.396 16.044 32.628 16.044C32.088 16.044 31.644 16.032 31.284 16.008L31.068 15.18C31.62 15.228 32.124 15.252 32.58 15.252C33.204 15.228 33.552 14.952 33.648 14.424C33.732 13.872 33.78 13.284 33.78 12.66H29.868C29.616 13.344 29.268 13.932 28.824 14.412C28.08 15.18 26.832 15.792 25.104 16.236L24.768 15.42C26.316 15.06 27.432 14.532 28.128 13.86C28.464 13.524 28.74 13.116 28.944 12.66H25.152V11.844H29.22C29.292 11.556 29.34 11.268 29.388 10.968ZM25.92 5.64H34.2V10.536H25.92V5.64ZM33.348 9.768V8.496H30.492V9.768H33.348ZM30.492 7.728H33.348V6.444H30.492V7.728ZM29.652 9.768V8.496H26.772V9.768H29.652ZM26.772 7.728H29.652V6.444H26.772V7.728Z"
        fill="currentColor" />
    <g clip-path="url(#clip0_1_6441)">
        <path fill-rule="evenodd" clip-rule="evenodd"
            d="M10.8839 8.86611C9.12652 7.10875 6.27728 7.10875 4.51992 8.86611C2.76256 10.6235 2.76256 13.4727 4.51992 15.2301C6.27728 16.9874 9.12653 16.9874 10.8839 15.2301C12.6412 13.4727 12.6412 10.6235 10.8839 8.86611ZM3.81282 8.159C5.9433 6.02851 9.38679 6.01126 11.5385 8.10724L11.237 7.80572L14.9796 4.06319L12.6517 4.06319C12.3756 4.06319 12.1517 3.83933 12.1517 3.56319C12.1517 3.28705 12.3756 3.06319 12.6517 3.06319L15.6873 3.06319C16.2395 3.06319 16.6873 3.5109 16.6873 4.06319L16.6873 7.09872C16.6873 7.37487 16.4634 7.59872 16.1873 7.59872C15.9111 7.59872 15.6873 7.37487 15.6873 7.09872L15.6873 4.7697L11.9441 8.51282L11.6428 8.21145C13.7387 10.3632 13.7215 13.8067 11.591 15.9372C9.44311 18.0851 5.9607 18.0851 3.81282 15.9372C1.66493 13.7893 1.66493 10.3069 3.81282 8.159Z"
            fill="currentColor" />
    </g>
    <defs>
        <clipPath id="clip0_1_6441">
            <rect width="20" height="20" fill="currentColor" />
        </clipPath>
    </defs>
</svg>