<svg width="12.000000" height="12.000000" viewBox="0 0 12 12" fill="none" xmlns="http://www.w3.org/2000/svg"
    xmlns:xlink="http://www.w3.org/1999/xlink">
    <desc>
        Created with Pixso.
    </desc>
    <defs />
    <rect id="global_next12" rx="0.000000" width="11.000000" height="11.000000"
        transform="translate(12.500000 0.500000) rotate(90.000000)" fill="#FFFFFF" fill-opacity="0" />
    <g opacity="0.000100" style="mix-blend-mode:normal">
        <rect id="矩形" x="12.000000" width="12.000000" height="12.000000" transform="rotate(90 12.000000 0.000000)"
            fill="#FFFBFB" fill-opacity="0.700000" />
        <rect id="矩形" x="12.000000" width="12.000000" height="12.000000" transform="rotate(90 12.000000 0.000000)"
            stroke="#979797" stroke-opacity="0" stroke-width="0.000000" />
    </g>
    <g style="mix-blend-mode:normal">
        <path id="路径 4"
            d="M6 7.28L2.88 4.16C2.68 3.96 2.36 3.97 2.17 4.17C1.99 4.37 1.99 4.67 2.18 4.86L5.64 8.32C5.84 8.51 6.15 8.51 6.35 8.32L9.81 4.86C10 4.67 10 4.37 9.82 4.17C9.63 3.97 9.31 3.96 9.11 4.16L6 7.28Z"
            fill="#FFFBFB" fill-opacity="0.700000" fill-rule="nonzero" />
    </g>
</svg>