<svg width="36" height="20" viewBox="0 0 36 20" fill="none" xmlns="http://www.w3.org/2000/svg">
    <path
        d="M24.696 7.908H27.912C28.296 6.996 28.668 6.072 29.028 5.136L29.904 5.4C29.556 6.288 29.22 7.128 28.896 7.908H35.304V8.736H33.252C32.928 10.368 32.292 11.736 31.344 12.852C31.536 12.948 31.716 13.056 31.896 13.164C33.048 13.848 34.14 14.64 35.172 15.528L34.524 16.164C33.42 15.228 32.256 14.388 31.008 13.656C30.912 13.596 30.816 13.548 30.72 13.5C29.352 14.772 27.516 15.66 25.2 16.164L24.816 15.336C26.964 14.892 28.656 14.136 29.904 13.056C28.848 12.516 27.612 11.988 26.196 11.484C26.664 10.572 27.108 9.66 27.54 8.736H24.696V7.908ZM30.552 12.432C31.488 11.4 32.1 10.176 32.388 8.736H28.536C28.14 9.6 27.756 10.392 27.396 11.112C28.596 11.544 29.652 11.976 30.552 12.432Z"
        fill="currentColor" />
    <circle cx="10" cy="6.5" r="5" stroke="currentColor"/>
    <path d="M10 12L10 18" stroke="currentColor" />
    <path d="M7.5 16L9.64645 18.1464C9.84171 18.3417 10.1583 18.3417 10.3536 18.1464L12.5 16" stroke="currentColor"
       stroke-linecap="round" />
</svg>