<svg width="17" height="16" viewBox="0 0 17 16" fill="none" xmlns="http://www.w3.org/2000/svg">
    <path fill-rule="evenodd" clip-rule="evenodd" d="M1.05347 6.19933L1.05346 9.13399C1.05322 9.14434 1.05322 9.15466 1.05346 9.16496L1.05346 10.6667C1.05346 11.0349 1.35194 11.3333 1.72013 11.3333C2.08832 11.3333 2.3868 11.0349 2.3868 10.6667V10.1063L4.96646 11.0586C4.83391 12.2528 5.52642 13.4274 6.70565 13.8566C7.8769 14.2829 9.15294 13.8373 9.82283 12.8514L11.925 13.6274C12.7957 13.9488 13.7201 13.3046 13.7201 12.3766V2.95674C13.7201 2.0287 12.7957 1.38452 11.925 1.70591L2.3868 5.22702V4.66667C2.3868 4.29848 2.08832 4 1.72013 4C1.35194 4 1.05347 4.29848 1.05347 4.66667L1.05347 6.16835C1.05322 6.17865 1.05322 6.18898 1.05347 6.19933ZM8.49008 12.3594L6.29918 11.5506C6.37029 12.0169 6.68718 12.4309 7.16168 12.6036C7.63208 12.7748 8.13629 12.6648 8.49008 12.3594ZM12.3868 12.3766L2.3868 8.68501L2.3868 6.6483L12.3868 2.95674V12.3766Z" fill="white" fill-opacity="0.7"/>
    </svg>
    