<svg width="128.000000" height="26.000000" viewBox="0 0 128 26" fill="none" xmlns="http://www.w3.org/2000/svg"
    xmlns:xlink="http://www.w3.org/1999/xlink">
    <desc>
        Created with Pixso.
    </desc>
    <defs />
    <path id="Vector"
        d="M8.06 9.09C4.75 6.25 2.32 9.24 2.71 11.72C3.12 14.42 6.05 17.11 8.07 17.11C10.09 17.11 13 14.41 13.42 11.71C13.8 9.23 11.37 6.25 8.06 9.09Z"
        fill="#FF002C" fill-opacity="1.000000" fill-rule="nonzero" />
    <path id="Vector"
        d="M8.06 9.09C4.75 6.25 2.32 9.24 2.71 11.72C3.12 14.42 6.05 17.11 8.07 17.11C10.09 17.11 13 14.41 13.42 11.71C13.8 9.23 11.37 6.25 8.06 9.09ZM3.54 13.64Q2.97 12.66 2.82 11.7Q2.75 11.26 2.81 10.79Q2.84 10.55 2.89 10.32Q2.95 10.11 3.03 9.91Q3.19 9.48 3.45 9.12Q3.72 8.76 4.07 8.51Q4.42 8.25 4.81 8.14Q5.26 8.02 5.76 8.07Q6.84 8.2 7.98 9.18L8.06 9.24L8.14 9.18Q9.28 8.2 10.36 8.07Q10.86 8.01 11.31 8.14Q11.7 8.25 12.05 8.5Q12.4 8.75 12.67 9.11Q12.93 9.47 13.1 9.9Q13.17 10.1 13.23 10.31Q13.29 10.54 13.31 10.78Q13.37 11.25 13.3 11.69Q13.15 12.65 12.59 13.63Q12.06 14.56 11.26 15.34Q10.48 16.1 9.64 16.54Q8.78 16.99 8.07 16.99Q7.35 16.99 6.49 16.54Q5.65 16.1 4.87 15.34Q4.07 14.56 3.54 13.64Z"
        fill="#84062D" fill-opacity="1.000000" fill-rule="evenodd" />
    <path id="Vector"
        d="M2.71 11.72C3.12 14.42 6.05 17.11 8.07 17.11C10.09 17.11 13 14.41 13.42 11.71C13.8 9.23 11.37 6.25 8.06 9.09C4.75 6.25 2.32 9.24 2.71 11.72Z"
        stroke="#84062D" stroke-opacity="0" stroke-width="0.400000" />
    <path id="Vector" d="M7.58 9.73C7.83 9.37 8.06 9.09 8.35 8.85" stroke="#84062D" stroke-opacity="0"
        stroke-width="0.400000" stroke-linecap="round" />
    <path id="Vector" d="M12.38 10.26C12.39 10.88 11.89 10.68 11.61 10.42C9.16 8.23 12.33 8.14 12.38 10.26Z"
        fill="#FF4A69" fill-opacity="1.000000" fill-rule="nonzero" />
    <path id="Vector"
        d="M12.25 11.34C12.43 11.37 12.54 11.6 12.49 11.84C12.44 12.08 12.25 12.24 12.07 12.2C11.88 12.16 11.78 11.94 11.83 11.7C11.88 11.46 12.06 11.3 12.25 11.34Z"
        fill="#FF4A69" fill-opacity="1.000000" fill-rule="evenodd" />
    <path id="Vector"
        d="M120.06 9.09C116.75 6.25 114.32 9.24 114.71 11.72C115.13 14.42 118.05 17.11 120.07 17.11C122.09 17.11 125 14.41 125.42 11.71C125.8 9.23 123.37 6.25 120.06 9.09Z"
        fill="#FF002C" fill-opacity="1.000000" fill-rule="nonzero" />
    <path id="Vector"
        d="M120.06 9.09C116.75 6.25 114.32 9.24 114.71 11.72C115.13 14.42 118.05 17.11 120.07 17.11C122.09 17.11 125 14.41 125.42 11.71C125.8 9.23 123.37 6.25 120.06 9.09ZM115.54 13.64Q114.97 12.66 114.82 11.7Q114.76 11.26 114.81 10.79Q114.84 10.55 114.9 10.32Q114.95 10.11 115.03 9.91Q115.19 9.48 115.45 9.12Q115.72 8.76 116.07 8.51Q116.42 8.25 116.81 8.14Q117.26 8.02 117.76 8.07Q118.84 8.2 119.98 9.18L120.06 9.24L120.14 9.18Q121.28 8.2 122.36 8.07Q122.86 8.01 123.31 8.14Q123.7 8.25 124.05 8.5Q124.4 8.75 124.67 9.11Q124.93 9.47 125.1 9.9Q125.17 10.1 125.23 10.31Q125.29 10.54 125.31 10.78Q125.37 11.25 125.3 11.69Q125.15 12.65 124.59 13.63Q124.06 14.56 123.26 15.34Q122.48 16.1 121.64 16.54Q120.78 16.99 120.07 16.99Q119.35 16.99 118.49 16.54Q117.65 16.1 116.87 15.34Q116.07 14.56 115.54 13.64Z"
        fill="#84062D" fill-opacity="1.000000" fill-rule="evenodd" />
    <path id="Vector"
        d="M114.71 11.72C115.13 14.42 118.05 17.11 120.07 17.11C122.09 17.11 125 14.41 125.42 11.71C125.8 9.23 123.37 6.25 120.06 9.09C116.75 6.25 114.32 9.24 114.71 11.72Z"
        stroke="#84062D" stroke-opacity="0" stroke-width="0.400000" />
    <path id="Vector" d="M119.58 9.73C119.83 9.37 120.06 9.09 120.35 8.85" stroke="#84062D" stroke-opacity="0"
        stroke-width="0.400000" stroke-linecap="round" />
    <path id="Vector" d="M124.38 10.26C124.39 10.88 123.89 10.68 123.61 10.42C121.16 8.23 124.33 8.14 124.38 10.26Z"
        fill="#FF4A69" fill-opacity="1.000000" fill-rule="nonzero" />
    <path id="Vector"
        d="M124.25 11.34C124.43 11.37 124.54 11.6 124.49 11.84C124.44 12.08 124.25 12.24 124.07 12.2C123.89 12.16 123.78 11.94 123.83 11.7C123.88 11.46 124.07 11.3 124.25 11.34Z"
        fill="#FF4A69" fill-opacity="1.000000" fill-rule="evenodd" />
    <path id="基础信息"
        d="M65.26 13.84C65.78 13.24 66.28 12.64 66.76 12L66.76 22.32L68.82 22.32L68.82 8.76C69.54 7.4 70.12 5.98 70.56 4.48L68.6 3.56C67.72 6.64 66.36 9.32 64.56 11.6L65.26 13.84ZM92.04 5.08L87.62 5.08L87.62 15.3L100.54 15.3L100.54 5.08L94.3 5.08C94.5 4.69 94.66 4.3 94.78 3.88L92.58 3.58C92.46 4.1 92.28 4.6 92.04 5.08ZM75.83 6.1L70.1 6.1L70.1 8.06L83.28 8.06L83.28 6.1L77.9 6.1C77.69 5.38 77.4 4.58 77 3.72L75 4.26C75.3 4.86 75.58 5.46 75.83 6.1ZM28.82 5.08L25.52 5.08L25.52 6.82L28.82 6.82L28.82 12.94L25.22 12.94L25.22 14.74L28.88 14.74C28 15.6 26.7 16.32 24.98 16.92L26.04 18.68C27.22 18.1 28.24 17.45 29.12 16.74L29.12 18.34L32.98 18.34L32.98 19.71L26.22 19.71L26.22 21.64L41.64 21.64L41.64 19.71L35.02 19.71L35.02 18.34L38.84 18.34L38.84 16.71C39.74 17.48 40.86 18.14 42.2 18.71L43.06 16.92C41.34 16.37 40.02 15.66 39.09 14.74L42.76 14.74L42.76 12.94L39.16 12.94L39.16 6.82L42.46 6.82L42.46 5.08L39.16 5.08L39.16 3.76L37.12 3.76L37.12 5.08L30.86 5.08L30.86 3.76L28.82 3.76L28.82 5.08ZM60.44 5.48L60.44 10.5L58.64 10.5L58.64 3.9L56.7 3.9L56.7 10.5L54.94 10.5L54.94 5.48L53.02 5.48L53.02 12.38L56.7 12.38L56.7 19.29L54.66 19.29L54.66 13.78L52.74 13.78L52.74 21.18L60.72 21.18L60.72 22.32L62.64 22.32L62.64 13.78L60.72 13.78L60.72 19.29L58.64 19.29L58.64 12.38L62.36 12.38L62.36 5.48L60.44 5.48ZM45.12 6.66L47.2 6.66C46.74 9.26 45.86 11.62 44.54 13.72L45.64 15.52C45.98 15.02 46.3 14.5 46.62 13.96L46.62 21.82L48.42 21.82L48.42 20.56L49.94 20.56L49.94 21.64L51.7 21.64L51.7 10.62L48.14 10.62C48.56 9.38 48.9 8.06 49.14 6.66L52.02 6.66L52.02 4.66L45.12 4.66L45.12 6.66ZM37.12 7.84L30.86 7.84L30.86 6.82L37.12 6.82L37.12 7.84ZM98.52 7.98L89.64 7.98L89.64 6.86L98.52 6.86L98.52 7.98ZM81.6 9.12L71.9 9.12L71.9 10.98L81.6 10.98L81.6 9.12ZM37.12 10.4L30.86 10.4L30.86 9.43L37.12 9.43L37.12 10.4ZM98.52 10.74L89.64 10.74L89.64 9.62L98.52 9.62L98.52 10.74ZM81.6 11.94L71.9 11.94L71.9 13.82L81.6 13.82L81.6 11.94ZM37.12 12.94L30.86 12.94L30.86 12L37.12 12L37.12 12.94ZM98.52 12.38L98.52 13.54L89.64 13.54L89.64 12.38L98.52 12.38ZM49.94 18.79L48.42 18.79L48.42 12.42L49.94 12.42L49.94 18.79ZM32.98 16.5L29.38 16.5C30 15.94 30.52 15.36 30.96 14.74L37.02 14.74C37.41 15.34 37.93 15.94 38.58 16.5L35.02 16.5L35.02 15.18L32.98 15.18L32.98 16.5ZM82.04 22.28L82.04 14.92L71.44 14.92L71.44 22.28L73.48 22.28L73.48 21.28L80.01 21.28L80.01 22.28L82.04 22.28ZM96.42 18.16C95.9 17.42 95.16 16.56 94.24 15.56L92.7 16.52C93.6 17.52 94.32 18.44 94.84 19.24L96.42 18.16ZM103.28 20.04C102.64 18.87 101.76 17.52 100.6 15.96L98.96 16.98C100.08 18.54 100.96 19.94 101.6 21.2L103.28 20.04ZM91.54 21.98L96.62 21.98C97.42 21.98 98.02 21.82 98.42 21.52C98.84 21.2 99.14 20.18 99.32 18.45L97.32 17.79C97.26 18.92 97.14 19.6 96.94 19.82C96.78 20.02 96.54 20.14 96.22 20.14L92.14 20.14C91.74 20.14 91.56 19.92 91.56 19.52L91.56 16.37L89.44 16.37L89.44 19.98C89.44 21.3 90.14 21.98 91.54 21.98ZM88.48 16.79L86.52 16.4C86.2 17.84 85.62 19.21 84.8 20.5L86.56 21.64C87.38 20.28 88.02 18.66 88.48 16.79ZM80.01 19.29L73.48 19.29L73.48 16.86L80.01 16.86L80.01 19.29Z"
        fill="#FFFFFF" fill-opacity="1.000000" fill-rule="evenodd" />
</svg>