<svg width="364.000000" height="46.800781" viewBox="0 0 364 46.8008" fill="none" xmlns="http://www.w3.org/2000/svg"
    xmlns:xlink="http://www.w3.org/1999/xlink">
    <desc>
        Created with Pixso.
    </desc>
    <defs />
    <path id="Rectangle 19985"
        d="M0 8.32C0 3.72 3.72 0 8.31 0L167.33 0C168.47 0 169.52 0.62 170.07 1.62L181.17 21.9C181.69 22.83 181.69 23.96 181.17 24.89L170.07 45.17C169.52 46.17 168.47 46.8 167.33 46.8L8.31 46.8C3.72 46.8 0 43.07 0 38.48L0 8.32Z"
        fill="#FFFFFF" fill-opacity="0.200000" fill-rule="nonzero" />
    <path id="Rectangle 19985"
        d="M0 8.32C0 3.72 3.72 0 8.31 0L167.33 0C168.47 0 169.52 0.62 170.07 1.62L181.17 21.9C181.69 22.83 181.69 23.96 181.17 24.89L170.07 45.17C169.52 46.17 168.47 46.8 167.33 46.8L8.31 46.8C3.72 46.8 0 43.07 0 38.48L0 8.32Z"
        fill="#FFFFFF" fill-opacity="0" fill-rule="nonzero" />
    <path id="Rectangle 19985" d="" fill="#FFC951" fill-opacity="0" fill-rule="evenodd" />
    <path id="Rectangle 19986"
        d="M186.26 5.11C184.57 3.08 186.01 0 188.66 0L355.68 0C360.27 0 364 3.72 364 8.32L364 38.48C364 43.07 360.27 46.8 355.68 46.8L188.66 46.8C186.01 46.8 184.57 43.71 186.26 41.68L199.83 25.39C200.8 24.24 200.8 22.56 199.83 21.4L186.26 5.11Z"
        fill="#FFFFFF" fill-opacity="0.200000" fill-rule="nonzero" />
    <path id="Rectangle 19986"
        d="M186.26 5.11C184.57 3.08 186.01 0 188.66 0L355.68 0C360.27 0 364 3.72 364 8.32L364 38.48C364 43.07 360.27 46.8 355.68 46.8L188.66 46.8C186.01 46.8 184.57 43.71 186.26 41.68L199.83 25.39C200.8 24.24 200.8 22.56 199.83 21.4L186.26 5.11Z"
        fill="#FFFFFF" fill-opacity="0" fill-rule="nonzero" />
    <path id="Rectangle 19986" d="" fill="#FFC951" fill-opacity="0" fill-rule="evenodd" />
</svg>