<svg width="358.000000" height="372.000000" viewBox="0 0 358 372" fill="none" xmlns="http://www.w3.org/2000/svg"
    xmlns:xlink="http://www.w3.org/1999/xlink">
    <desc>
        Created with Pixso.
    </desc>
    <defs>
        <clipPath id="clip1004_9165">
            <rect id="Header" rx="0.000000" width="357.481171" height="55.481159"
                transform="translate(0.259420 0.259420)" fill="white" fill-opacity="0" />
        </clipPath>
    </defs>
    <path id="Rectangle 7662"
        d="M0 56L358 56L358 362C358 367.52 353.52 372 348 372L10 372C4.47 372 0 367.52 0 362L0 56Z" fill="#CA001C"
        fill-opacity="1.000000" fill-rule="nonzero" />
    <path id="Rectangle 7662" d="" fill="#FF4A69" fill-opacity="0" fill-rule="evenodd" />
    <g clip-path="url(#clip1004_9165)">
        <path id="Vector"
            d="M338.26 0L20.73 0C12.13 0 5.16 6.96 5.16 15.56L5.16 55.94L353.83 55.94L353.83 15.56C353.83 6.96 346.86 0 338.26 0Z"
            fill="#FFF8F8" fill-opacity="1.000000" fill-rule="nonzero" />
        <path id="Vector"
            d="M20.73 0L338.26 0C346.86 0 353.83 6.96 353.83 15.56L353.83 55.94L353.05 55.94L5.16 55.94L5.16 15.56C5.16 6.96 12.13 0 20.73 0ZM5.94 55.16L353.05 55.16L353.05 15.56Q353.05 12.5 351.97 9.88Q350.88 7.27 348.72 5.1Q346.55 2.94 343.94 1.86Q341.32 0.77 338.26 0.77L20.73 0.77Q17.67 0.77 15.05 1.86Q12.44 2.94 10.27 5.1Q8.11 7.27 7.03 9.88Q5.94 12.5 5.94 15.56L5.94 55.16Z"
            fill="#84062D" fill-opacity="1.000000" fill-rule="evenodd" />
        <path id="Vector"
            d="M335.67 9.84L23.32 9.84C19.03 9.84 15.54 13.32 15.54 17.62L15.54 49.19C15.54 53.49 19.03 56.98 23.32 56.98L335.67 56.98C339.97 56.98 343.45 53.49 343.45 49.19L343.45 17.62C343.45 13.32 339.97 9.84 335.67 9.84Z"
            fill="#FFF8F8" fill-opacity="1.000000" fill-rule="nonzero" />
        <path id="Vector"
            d="M23.32 9.84L335.67 9.84C339.97 9.84 343.45 13.32 343.45 17.62L343.45 49.19C343.45 53.49 339.97 56.98 335.67 56.98L23.32 56.98C19.03 56.98 15.54 53.49 15.54 49.19L15.54 17.62C15.54 13.32 19.03 9.84 23.32 9.84ZM23.32 10.62L335.67 10.62Q337.12 10.62 338.36 11.13Q339.59 11.64 340.62 12.67Q341.65 13.69 342.16 14.93Q342.67 16.17 342.67 17.62L342.67 49.19Q342.67 50.64 342.16 51.88Q341.65 53.12 340.62 54.15Q339.59 55.17 338.36 55.68Q337.12 56.2 335.67 56.2L23.32 56.2Q21.87 56.2 20.64 55.68Q19.4 55.17 18.37 54.15Q17.35 53.12 16.83 51.88Q16.32 50.64 16.32 49.19L16.32 17.62Q16.32 16.17 16.83 14.93Q17.35 13.69 18.37 12.67Q19.4 11.64 20.64 11.13Q21.87 10.62 23.32 10.62Z"
            fill="#FFAAAA" fill-opacity="1.000000" fill-rule="evenodd" />
        <path id="Rectangle 7908" d="M356.19 27.29L180 56L358 56L358 28.83C358 27.87 357.14 27.14 356.19 27.29Z"
            fill="#CA0023" fill-opacity="1.000000" fill-rule="nonzero" />
        <path id="Vector"
            d="M16.06 0L342.93 0C351.53 0 358.5 6.96 358.5 15.56L358.5 55.94L0.5 55.94L0.5 15.56C0.5 6.96 7.46 0 16.06 0Z"
            fill="#FF002C" fill-opacity="0" fill-rule="evenodd" />
        <path id="Vector" d="" fill="#84062D" fill-opacity="0" fill-rule="evenodd" />
        <path id="正缘画像"
            d="M206.46 25.39L206.74 25.21L206.74 28.63L209.62 28.63C208.66 29.35 207.38 29.89 205.8 30.21L206.56 31.91C208.46 31.51 210 30.79 211.18 29.79C211.34 29.99 211.5 30.19 211.66 30.43C210.24 31.55 208.28 32.47 205.78 33.19L206.78 34.89C209.1 34.09 210.98 33.07 212.4 31.83C212.5 32.07 212.6 32.33 212.68 32.61C211 34.07 208.66 35.27 205.7 36.21L206.76 37.99C209.28 37.05 211.34 35.89 212.96 34.49L212.96 34.57C212.96 35.37 212.84 35.91 212.64 36.19C212.4 36.43 212.1 36.57 211.74 36.61C211.34 36.63 210.82 36.65 210.22 36.65L210.84 38.53C211.26 38.53 211.64 38.51 212 38.49C213.12 38.35 213.88 38.05 214.3 37.59C214.78 37.03 215.04 36.01 215.04 34.57C215 33.89 214.92 33.23 214.76 32.59C214.9 32.53 215.06 32.47 215.22 32.39C215.82 34.29 216.76 36.03 218.04 37.61L219.42 35.89C218.18 34.65 217.3 33.21 216.8 31.61C217.42 31.25 218 30.87 218.54 30.45L217.18 28.89C216.34 29.65 215.32 30.31 214.12 30.85C213.74 30.05 213.24 29.31 212.62 28.63L218.24 28.63L218.24 23.79L214.9 23.79C215.28 23.39 215.66 22.93 216.02 22.41L216.02 21.11L211.36 21.11L212.02 20.21L209.9 19.73C208.58 21.49 207 22.87 205.2 23.83C205.66 22.81 206.04 21.75 206.36 20.67L204.42 19.75C203.58 22.83 202.3 25.49 200.58 27.75L201.28 29.99C201.8 29.37 202.3 28.73 202.78 28.07L202.78 38.41L204.88 38.41L204.88 24.49C204.98 24.29 205.08 24.07 205.18 23.85L206.46 25.39ZM166.98 35.75L166.98 34.01C165.22 34.73 163.14 35.31 160.78 35.75L161.06 37.75C163.22 37.31 165.14 36.73 166.86 36.01L167.88 37.51C169.86 36.79 171.64 35.77 173.2 34.49C173.22 34.65 173.24 34.81 173.24 34.99C173.24 35.65 173.14 36.09 172.94 36.33C172.8 36.51 172.42 36.61 171.8 36.61L170.48 36.61L171.16 38.39L172.06 38.39C173.44 38.39 174.32 38.11 174.72 37.57C175.06 37.09 175.24 36.23 175.24 34.99C175.2 34.03 175.06 33.11 174.78 32.25C174.98 32.17 175.18 32.07 175.38 31.97C176.02 34.25 176.88 35.99 178 37.23L179.42 35.61C178.26 34.69 177.36 33.17 176.72 31.09C177.34 30.63 177.94 30.09 178.52 29.45L177.26 28.21C176.26 29.25 175.18 30.05 174.06 30.61C173.7 29.97 173.26 29.37 172.72 28.81C173.04 28.53 173.34 28.25 173.6 27.97L178.94 27.97L178.94 26.15L176.1 26.15L177.6 21.81L177.6 20.99L172.04 20.99L172.4 20.09L170.4 19.77L168.28 25.35L174.36 25.35L174.08 26.15L167.46 26.15L167.46 27.97L171.18 27.97C170.26 28.53 168.9 29.07 167.12 29.57L168.14 31.23C169.3 30.79 170.34 30.33 171.24 29.81C171.4 30.01 171.58 30.23 171.76 30.47C170.48 31.41 168.98 32.15 167.24 32.69L168.26 34.19C169.84 33.61 171.26 32.81 172.52 31.81C172.66 32.09 172.78 32.41 172.88 32.75C171.22 34.03 169.26 35.03 166.98 35.75ZM165.56 20.59L163.58 19.79C163 21.91 162.32 23.83 161.53 25.59C161.25 26.03 160.94 26.31 160.58 26.45L161.16 28.51C162.08 28.31 162.94 28.13 163.78 27.95Q162.58 30.23 161.8 31.13C161.53 31.37 161.22 31.57 160.84 31.73L161.39 33.69C163.1 33.41 164.92 32.87 166.84 32.05L166.84 30.19C165.84 30.59 164.88 30.93 163.96 31.19C164.96 29.71 166.18 27.43 167.64 24.39L165.82 23.71C165.42 24.55 165.06 25.35 164.72 26.09C164.16 26.19 163.58 26.27 163.02 26.35C163.88 24.85 164.72 22.93 165.56 20.59ZM142.17 22.83L149.52 22.83L149.52 35.67L145.96 35.67L145.96 26.43L143.92 26.43L143.92 35.67L141 35.67L141 37.71L159.02 37.71L159.02 35.67L151.62 35.67L151.62 29.93L157.1 29.93L157.1 27.93L151.62 27.93L151.62 22.83L158.17 22.83L158.17 20.79L142.17 20.79L142.17 22.83ZM198.92 20.83L181.08 20.83L181.08 22.83L198.92 22.83L198.92 20.83ZM175.32 22.63L174.92 23.75L170.92 23.75L171.38 22.63L175.32 22.63ZM213.58 22.67C213.16 23.07 212.76 23.45 212.36 23.79L208.74 23.79C209.16 23.43 209.56 23.07 209.96 22.67L213.58 22.67ZM195.04 24.33L185.04 24.33L185.04 34.01L195.04 34.01L195.04 24.33ZM211.66 25.47C211.52 25.99 211.32 26.49 211.08 26.95L208.76 26.95L208.76 25.47L211.66 25.47ZM216.22 25.47L216.22 26.95L213.2 26.95C213.38 26.49 213.52 25.99 213.64 25.47L216.22 25.47ZM198.42 25.95L196.38 25.95L196.38 35.55L183.66 35.55L183.66 26.01L181.62 26.01L181.62 37.55L196.38 37.55L196.38 38.39L198.42 38.39L198.42 25.95ZM187.04 26.21L189.08 26.21L189.08 28.25L187.04 28.25L187.04 26.21ZM193.04 26.21L193.04 28.25L191 28.25L191 26.21L193.04 26.21ZM187.04 32.13L187.04 30.05L189.08 30.05L189.08 32.13L187.04 32.13ZM193.04 32.13L191 32.13L191 30.05L193.04 30.05L193.04 32.13Z"
            fill="#A2001F" fill-opacity="1.000000" fill-rule="evenodd" />
        <path id="Rectangle 7907" d="M1.8 27.29L180 56L0 56L0 28.82C0 27.86 0.85 27.13 1.8 27.29Z" fill="#CA0023"
            fill-opacity="1.000000" fill-rule="nonzero" />
        <g style="mix-blend-mode:multiply">
            <path id="Union"
                d="M6.97 24.02C6.02 23.87 5.16 24.6 5.16 25.56L5.16 57.33L353.83 57.33L353.83 25.56C353.83 24.6 352.97 23.87 352.02 24.02L179.5 52.02L6.97 24.02Z"
                fill="#FFC5CD" fill-opacity="1.000000" fill-rule="nonzero" />
        </g>
    </g>
</svg>